<svg width="1024" height="1024" viewBox="0 0 1024 1024" fill="none" xmlns="http://www.w3.org/2000/svg">
  <defs>
    <linearGradient id="bg" x1="160" y1="120" x2="864" y2="904" gradientUnits="userSpaceOnUse">
      <stop stop-color="#8EF7B8"/>
      <stop offset="1" stop-color="#1F9D6A"/>
    </linearGradient>
    <filter id="shadow" x="96" y="88" width="832" height="848" filterUnits="userSpaceOnUse" color-interpolation-filters="sRGB">
      <feFlood flood-opacity="0" result="BackgroundImageFix"/>
      <feColorMatrix in="SourceAlpha" type="matrix" values="0 0 0 0 0 0 0 0 0 0 0 0 0 0 0 0 0 0 127 0" result="hardAlpha"/>
      <feOffset dy="24"/>
      <feGaussianBlur stdDeviation="24"/>
      <feComposite in2="hardAlpha" operator="out"/>
      <feColorMatrix type="matrix" values="0 0 0 0 0.0352941 0 0 0 0 0.262745 0 0 0 0 0.176471 0 0 0 0.22 0"/>
      <feBlend mode="normal" in2="BackgroundImageFix" result="effect1_dropShadow_0_1"/>
      <feBlend mode="normal" in="SourceGraphic" in2="effect1_dropShadow_0_1" result="shape"/>
    </filter>
  </defs>
  <rect width="1024" height="1024" rx="232" fill="#F2FFF7"/>
  <g filter="url(#shadow)">
    <rect x="160" y="120" width="704" height="728" rx="164" fill="url(#bg)"/>
    <rect x="224" y="196" width="576" height="576" rx="120" fill="#0F3B2B" fill-opacity="0.16"/>
    <rect x="256" y="220" width="512" height="544" rx="104" fill="#114633"/>
    <rect x="320" y="292" width="384" height="116" rx="40" fill="#F2FFF7"/>
    <rect x="320" y="468" width="112" height="112" rx="32" fill="#F2FFF7"/>
    <rect x="456" y="468" width="112" height="112" rx="32" fill="#F2FFF7"/>
    <rect x="592" y="468" width="112" height="112" rx="32" fill="#F2FFF7"/>
    <rect x="320" y="604" width="112" height="112" rx="32" fill="#F2FFF7"/>
    <rect x="456" y="604" width="112" height="112" rx="32" fill="#F2FFF7"/>
    <rect x="592" y="604" width="112" height="112" rx="32" fill="#F2FFF7"/>
    <path d="M372 524H380V492C380 483.163 387.163 476 396 476C404.837 476 412 483.163 412 492V524H444C452.837 524 460 531.163 460 540C460 548.837 452.837 556 444 556H412V588C412 596.837 404.837 604 396 604C387.163 604 380 596.837 380 588V556H348C339.163 556 332 548.837 332 540C332 531.163 339.163 524 348 524H372Z" fill="#1F9D6A"/>
    <path d="M487 523C487 514.163 494.163 507 503 507H521C529.837 507 537 514.163 537 523V557C537 565.837 529.837 573 521 573H503C494.163 573 487 565.837 487 557V523Z" fill="#1F9D6A"/>
    <path d="M612 523C612 514.163 619.163 507 628 507H668C676.837 507 684 514.163 684 523C684 531.837 676.837 539 668 539H628C619.163 539 612 531.837 612 523Z" fill="#1F9D6A"/>
    <path d="M612 557C612 548.163 619.163 541 628 541H668C676.837 541 684 548.163 684 557C684 565.837 676.837 573 668 573H628C619.163 573 612 565.837 612 557Z" fill="#1F9D6A"/>
    <path d="M351.314 660.686C357.562 654.438 367.694 654.438 373.941 660.686L396 682.745L418.059 660.686C424.306 654.438 434.438 654.438 440.686 660.686C446.934 666.933 446.934 677.066 440.686 683.314L418.627 705.373L440.686 727.431C446.934 733.679 446.934 743.812 440.686 750.059C434.438 756.307 424.306 756.307 418.059 750.059L396 728L373.941 750.059C367.694 756.307 357.562 756.307 351.314 750.059C345.066 743.812 345.066 733.679 351.314 727.431L373.373 705.373L351.314 683.314C345.066 677.066 345.066 666.933 351.314 660.686Z" fill="#1F9D6A"/>
    <path d="M499 705C499 696.163 506.163 689 515 689H525C533.837 689 541 696.163 541 705V715H551C559.837 715 567 722.163 567 731C567 739.837 559.837 747 551 747H541V757C541 765.837 533.837 773 525 773H515C506.163 773 499 765.837 499 757V747H489C480.163 747 473 739.837 473 731C473 722.163 480.163 715 489 715H499V705Z" fill="#1F9D6A"/>
    <path d="M612 715C612 706.163 619.163 699 628 699H668C676.837 699 684 706.163 684 715C684 723.837 676.837 731 668 731H628C619.163 731 612 723.837 612 715Z" fill="#1F9D6A"/>
  </g>
</svg>
